# xmcd CD database file
#
# Track frame offsets:
#	150
#	17198
#	34607
#	51875
#	68197
#	97536
#	118545
#	147095
#	169488
#	193215
#
# Disc length: 2854 seconds
#
# Revision: 0
# Processed by: cddbd v1.5.2PL0 Copyright (c) Steve Scherf et al.
# Submitted via: CDex 1.51
#
DISCID=850b240a
DTITLE=1N - Tällä tavalla
DYEAR=2006
DGENRE=Jazz
TTITLE0=Muukalainen
TTITLE1=Liekki
TTITLE2=Niin kuin muut
TTITLE3=Sinussa
TTITLE4=Pakoon
TTITLE5=Aavistan
TTITLE6=Voisit olla kaunis
TTITLE7=Syvemmälle
TTITLE8=Tällä tavalla
TTITLE9=Taulu
EXTD=YEAR: 2006
EXTT0=
EXTT1=
EXTT2=
EXTT3=
EXTT4=
EXTT5=
EXTT6=
EXTT7=
EXTT8=
EXTT9=
PLAYORDER=
